HIERARCHY
ROOT hip
{
  OFFSET 0 0 0
  CHANNELS 6 Xposition Yposition Zposition Zrotation Yrotation Xrotation
  JOINT abdomen
  {
    OFFSET 0 20.6881 -0.73152
    CHANNELS 3 Zrotation Xrotation Yrotation
    JOINT chest
    {
      OFFSET 0 11.7043 -0.48768
      CHANNELS 3 Zrotation Xrotation Yrotation
      JOINT neck
      {
        OFFSET 0 22.1894 -2.19456
        CHANNELS 3 Zrotation Xrotation Yrotation
        JOINT head
        {
          OFFSET -0.24384 7.07133 1.2192
          CHANNELS 3 Zrotation Xrotation Yrotation
          JOINT leftEye
          {
            OFFSET 4.14528 8.04674 8.04672
            CHANNELS 3 Zrotation Xrotation Yrotation
            End Site
            {
              OFFSET 1 0 0
            }
          }
          JOINT rightEye
          {
            OFFSET -3.6576 8.04674 8.04672
            CHANNELS 3 Zrotation Xrotation Yrotation
            End Site
            {
              OFFSET 1 0 0
            }
          }
        }
      }
      JOINT rCollar
      {
        OFFSET -2.68224 19.2634 -4.8768
        CHANNELS 3 Zrotation Xrotation Yrotation
        JOINT rShldr
        {
          OFFSET -8.77824 -1.95073 1.46304
          CHANNELS 3 Zrotation Xrotation Yrotation
          JOINT rForeArm
          {
            OFFSET -28.1742 -1.7115 0.48768
            CHANNELS 3 Zrotation Xrotation Yrotation
            JOINT rHand
            {
              OFFSET -22.5879 0.773209 7.07136
              CHANNELS 3 Zrotation Xrotation Yrotation
              JOINT rThumb1
              {
                OFFSET -1.2192 -0.487915 3.41376
                CHANNELS 3 Zrotation Xrotation Yrotation
                JOINT rThumb2
                {
                  OFFSET -3.37035 -0.52449 3.41376
                  CHANNELS 3 Zrotation Xrotation Yrotation
                  End Site
                  {
                    OFFSET -1.78271 -1.18214 1.43049
                  }
                }
              }
              JOINT rIndex1
              {
                OFFSET -7.75947 0.938293 5.60832
                CHANNELS 3 Zrotation Xrotation Yrotation
                JOINT rIndex2
                {
                  OFFSET -2.54057 -0.884171 1.56538
                  CHANNELS 3 Zrotation Xrotation Yrotation
                  End Site
                  {
                    OFFSET -1.62519 -0.234802 1.16502
                  }
                }
              }
              JOINT rMid1
              {
                OFFSET -8.24714 1.18213 3.41376
                CHANNELS 3 Zrotation Xrotation Yrotation
                JOINT rMid2
                {
                  OFFSET -3.10165 -0.590103 1.0647
                  CHANNELS 3 Zrotation Xrotation Yrotation
                  End Site
                  {
                    OFFSET -2.48547 -0.328903 0.83742
                  }
                }
              }
              JOINT rRing1
              {
                OFFSET -8.82822 0.546677 1.51678
                CHANNELS 3 Zrotation Xrotation Yrotation
                JOINT rRing2
                {
                  OFFSET -2.60934 -0.819778 -0.0198488
                  CHANNELS 3 Zrotation Xrotation Yrotation
                  End Site
                  {
                    OFFSET -2.33842 -0.294052 0.168128
                  }
                }
              }
              JOINT rPinky1
              {
                OFFSET -8.27202 -0.0477905 -0.4584
                CHANNELS 3 Zrotation Xrotation Yrotation
                JOINT rPinky2
                {
                  OFFSET -1.82734 -0.647385 -0.700984
                  CHANNELS 3 Zrotation Xrotation Yrotation
                  End Site
                  {
                    OFFSET -1.69225 -0.51767 -0.607171
                  }
                }
              }
            }
          }
        }
      }
      JOINT lCollar
      {
        OFFSET 2.68224 19.2634 -4.8768
        CHANNELS 3 Zrotation Xrotation Yrotation
        JOINT lShldr
        {
          OFFSET 8.77824 -1.95073 1.46304
          CHANNELS 3 Zrotation Xrotation Yrotation
          JOINT lForeArm
          {
            OFFSET 28.1742 -1.7115 0.48768
            CHANNELS 3 Zrotation Xrotation Yrotation
            JOINT lHand
            {
              OFFSET 22.5879 0.773209 7.07136
              CHANNELS 3 Zrotation Xrotation Yrotation
              JOINT lThumb1
              {
                OFFSET 1.2192 -0.487915 3.41376
                CHANNELS 3 Zrotation Xrotation Yrotation
                JOINT lThumb2
                {
                  OFFSET 3.37035 -0.52449 3.41376
                  CHANNELS 3 Zrotation Xrotation Yrotation
                  End Site
                  {
                    OFFSET 1.78271 -1.18214 1.43049
                  }
                }
              }
              JOINT lIndex1
              {
                OFFSET 7.75947 0.938293 5.60832
                CHANNELS 3 Zrotation Xrotation Yrotation
                JOINT lIndex2
                {
                  OFFSET 2.54057 -0.884171 1.56538
                  CHANNELS 3 Zrotation Xrotation Yrotation
                  End Site
                  {
                    OFFSET 1.62519 -0.234802 1.16502
                  }
                }
              }
              JOINT lMid1
              {
                OFFSET 8.24714 1.18213 3.41376
                CHANNELS 3 Zrotation Xrotation Yrotation
                JOINT lMid2
                {
                  OFFSET 3.10165 -0.590103 1.0647
                  CHANNELS 3 Zrotation Xrotation Yrotation
                  End Site
                  {
                    OFFSET 2.48547 -0.328903 0.83742
                  }
                }
              }
              JOINT lRing1
              {
                OFFSET 8.82822 0.546677 1.51678
                CHANNELS 3 Zrotation Xrotation Yrotation
                JOINT lRing2
                {
                  OFFSET 2.60934 -0.819778 -0.0198488
                  CHANNELS 3 Zrotation Xrotation Yrotation
                  End Site
                  {
                    OFFSET 2.33842 -0.294052 0.168128
                  }
                }
              }
              JOINT lPinky1
              {
                OFFSET 8.27202 -0.0477905 -0.4584
                CHANNELS 3 Zrotation Xrotation Yrotation
                JOINT lPinky2
                {
                  OFFSET 1.82734 -0.647385 -0.700984
                  CHANNELS 3 Zrotation Xrotation Yrotation
                  End Site
                  {
                    OFFSET 1.69225 -0.51767 -0.607171
                  }
                }
              }
            }
          }
        }
      }
    }
  }
  JOINT rButtock
  {
    OFFSET -8.77824 4.35084 1.2192
    CHANNELS 3 Zrotation Xrotation Yrotation
    JOINT rThigh
    {
      OFFSET 0 -1.70687 -2.19456
      CHANNELS 3 Zrotation Xrotation Yrotation
      JOINT rShin
      {
        OFFSET 0 -36.8199 0.73152
        CHANNELS 3 Zrotation Xrotation Yrotation
        JOINT rFoot
        {
          OFFSET 0.73152 -45.1104 -5.12064
          CHANNELS 3 Zrotation Xrotation Yrotation
          End Site
          {
            OFFSET -1.1221 -3.69964 12.103
          }
        }
      }
    }
  }
  JOINT lButtock
  {
    OFFSET 8.77824 4.35084 1.2192
    CHANNELS 3 Zrotation Xrotation Yrotation
    JOINT lThigh
    {
      OFFSET 0 -1.70687 -2.19456
      CHANNELS 3 Zrotation Xrotation Yrotation
      JOINT lShin
      {
        OFFSET 0 -36.8199 0.73152
        CHANNELS 3 Zrotation Xrotation Yrotation
        JOINT lFoot
        {
          OFFSET -0.73152 -45.1104 -5.12064
          CHANNELS 3 Zrotation Xrotation Yrotation
          End Site
          {
            OFFSET 1.1221 -3.69964 12.103
          }
        }
      }
    }
  }
}
MOTION
Frames:	4
Frame Time:	0.00833333
36.3822 84.6768 -72.287 -3.9577 76.6723 9.4557 11.2951 -7.34406 0.67667 2.08468 0.0699068 0.0754352 -7.19462 52.3967 -24.7752 75.4675 -55.7477 -12.1622 -0.0 0.0 0.0 -0.0 0.0 0.0 5.41236e-14 4.26788e-14 -8.66775e-14 65.1188 11.32 15.6252 -12.1481 -5.55319 21.8968 -0.847351 25.1972 3.79097 3.46744e-10 -1.06609e-09 2.61747e-09 6.46586e-10 -1.81468e-09 4.50972e-09 3.46765e-10 -1.06611e-09 2.61745e-09 7.73091 5.47488 0.417314 3.46745e-10 -1.0661e-09 2.61747e-09 2.90554 0.965183 0.102902 3.46748e-10 -1.06609e-09 2.61747e-09 10.2786 0.731801 0.0259123 3.46739e-10 -1.06609e-09 2.61748e-09 2.22167 -0.733487 -0.20892 5.40481e-14 4.27052e-14 -8.69174e-14 -83.3969 37.9559 2.35187 16.5241 -9.18364 -30.7864 3.8823 -47.4728 8.81427 -1.83883e-09 -1.99283e-10 -9.86293e-10 -3.13987e-09 -4.09146e-10 -1.7679e-09 -1.83884e-09 -1.99279e-10 -9.86288e-10 -7.73091 5.47488 -0.417314 -1.83884e-09 -1.99283e-10 -9.86294e-10 -2.90554 0.965183 -0.102902 -1.83884e-09 -1.99283e-10 -9.86294e-10 -10.2786 0.731801 -0.0259123 -1.83883e-09 -1.99284e-10 -9.86301e-10 -2.22167 -0.733487 0.20892 -2.03217e-16 0.0 -3.88251e-19 14.8185 -30.737 5.79775 -0.169906 33.9475 0.56982 4.39226 -14.6022 15.3653 2.03217e-16 0.0 3.88251e-19 7.92085 -42.1423 -2.67375 0.651628 51.2893 -1.06532 1.96819 -5.66587 7.33326
36.6708 84.7312 -72.201 -3.8088 75.6071 9.7869 11.2253 -7.1638 0.908109 1.9004 -0.0353659 0.139465 -7.25446 52.2737 -24.6883 75.8064 -55.5795 -11.9983 -0.0 0.0 0.0 -0.0 0.0 0.0 6.84297e-14 3.41725e-14 -1.27073e-13 65.745 11.0154 15.2568 -12.3068 -5.66613 22.2054 -0.737364 23.6258 3.52454 4.57383e-10 -9.11684e-10 2.93129e-09 8.43736e-10 -1.54176e-09 5.05026e-09 4.57403e-10 -9.11706e-10 2.93127e-09 7.73091 5.47488 0.417314 4.57383e-10 -9.11688e-10 2.93128e-09 2.90554 0.965183 0.102902 4.57386e-10 -9.11687e-10 2.93129e-09 10.2786 0.731801 0.0259123 4.57376e-10 -9.11683e-10 2.9313e-09 2.22167 -0.733487 -0.20892 6.83384e-14 3.42092e-14 -1.27322e-13 -83.1868 37.7089 2.38648 16.4144 -9.0781 -30.5525 3.87421 -47.4391 8.80351 -2.14581e-09 -2.44502e-10 -1.17564e-09 -3.6634e-09 -4.99684e-10 -2.10464e-09 -2.14581e-09 -2.44496e-10 -1.17564e-09 -7.73091 5.47488 -0.417314 -2.14581e-09 -2.44501e-10 -1.17564e-09 -2.90554 0.965183 -0.102902 -2.14582e-09 -2.44501e-10 -1.17564e-09 -10.2786 0.731801 -0.0259123 -2.14581e-09 -2.44503e-10 -1.17565e-09 -2.22167 -0.733487 0.20892 -2.03217e-16 0.0 -3.88251e-19 14.8593 -30.4517 6.2095 -0.164027 33.6657 0.582017 4.62671 -14.6223 16.0532 2.03217e-16 0.0 3.88251e-19 7.77705 -42.731 -3.05086 0.61352 50.2365 -1.02712 1.98511 -5.77552 7.36731
36.9673 84.7969 -72.0966 -3.7152 74.5393 10.0538 11.1487 -6.98363 1.10729 1.73687 -0.119089 0.194245 -7.37982 52.1269 -24.5609 76.1619 -55.4066 -11.8045 -0.0 0.0 0.0 -0.0 0.0 0.0 1.07242e-13 1.82527e-13 -2.56202e-13 66.2984 10.8735 14.9145 -12.4695 -5.78382 22.5216 -0.628971 21.9816 3.25125 1.15175e-09 2.83824e-10 2.51006e-09 2.03548e-09 5.33623e-10 4.31274e-09 1.15176e-09 2.83805e-10 2.51004e-09 7.73091 5.47488 0.417314 1.15175e-09 2.83821e-10 2.51006e-09 2.90554 0.965183 0.102902 1.15175e-09 2.83822e-10 2.51006e-09 10.2786 0.731801 0.0259123 1.15174e-09 2.83824e-10 2.51007e-09 2.22167 -0.733487 -0.20892 1.07144e-13 1.82565e-13 -2.5642e-13 -82.9955 37.5466 2.45684 16.3262 -8.99348 -30.3655 3.83558 -47.2704 8.75112 -2.53566e-09 -1.18167e-10 -9.38586e-10 -4.34361e-09 -2.7947e-10 -1.70918e-09 -2.53566e-09 -1.1816e-10 -9.38583e-10 -7.73091 5.47488 -0.417314 -2.53566e-09 -1.18165e-10 -9.38587e-10 -2.90554 0.965183 -0.102902 -2.53567e-09 -1.18166e-10 -9.38589e-10 -10.2786 0.731801 -0.0259123 -2.53566e-09 -1.18168e-10 -9.38596e-10 -2.22167 -0.733487 0.20892 -2.03217e-16 0.0 -3.88251e-19 14.8985 -30.1162 6.61994 -0.157528 33.3235 0.591517 4.85895 -14.6145 16.7506 2.03217e-16 0.0 3.88251e-19 7.6685 -43.2545 -3.41146 0.57541 49.1103 -0.987594 1.96944 -5.8843 7.2591
37.269 84.8706 -71.9817 -3.6604 73.47 10.2789 11.0696 -6.81007 1.29052 1.58201 -0.187319 0.24416 -7.54577 51.9669 -24.4069 76.5536 -55.2413 -11.568 -0.0 0.0 0.0 -0.0 0.0 0.0 1.6245e-13 4.36812e-13 -4.46632e-13 66.8022 10.8788 14.582 -12.6412 -5.9093 22.8566 -0.525091 20.2259 2.96666 2.24279e-09 2.20022e-09 1.58682e-09 3.903e-09 3.85701e-09 2.70239e-09 2.2428e-09 2.20021e-09 1.5868e-09 7.73091 5.47488 0.417314 2.24279e-09 2.20022e-09 1.58681e-09 2.90554 0.965183 0.102902 2.2428e-09 2.20022e-09 1.58681e-09 10.2786 0.731801 0.0259123 2.24279e-09 2.20022e-09 1.58682e-09 2.22167 -0.733487 -0.20892 1.6235e-13 4.36846e-13 -4.46793e-13 -82.8088 37.4919 2.55749 16.2587 -8.92952 -30.2217 3.76997 -46.9789 8.66158 -2.9754e-09 1.20743e-10 -4.18672e-10 -5.11894e-09 1.4476e-10 -8.27721e-10 -2.97541e-09 1.2075e-10 -4.18671e-10 -7.73091 5.47488 -0.417314 -2.9754e-09 1.20745e-10 -4.18675e-10 -2.90554 0.965183 -0.102902 -2.97541e-09 1.20745e-10 -4.18676e-10 -10.2786 0.731801 -0.0259123 -2.9754e-09 1.20742e-10 -4.18683e-10 -2.22167 -0.733487 0.20892 -2.03217e-16 0.0 -3.88251e-19 14.934 -29.7506 7.02381 -0.150548 32.9307 0.598657 5.09176 -14.5811 17.4665 2.03217e-16 0.0 3.88251e-19 7.60542 -43.7347 -3.735 0.537876 47.9162 -0.947271 1.91903 -5.98272 7.00834
